# xmcd
#
# Track frame offsets: 
#        150
#        35519
#        60462
#        78605
#        102416
#        126227
#        149470
#        177254
#        202195
#        231109
#        258888
#        277030
#        304243
#
# Disc length: 4498 seconds
#
# Revision: 0
# Processed by: cddbd v1.5.2PL0 Copyright (c) Steve Scherf et al.
# Submitted via: ExactAudioCopy v0.99pb5
#
DISCID=c211900d
DTITLE=Steve Angello - Subliminal Sessions Winter 2009 [CD 1)
DYEAR=2009
DGENRE=House
TTITLE0=Tom Budden - The Tree Dance
TTITLE1=DJ T - Dis
TTITLE2=Chaim - Thrill You
TTITLE3=Gel Abril - Marir (Original Mix)
TTITLE4=Matteo Dimarr - Smell The Wood
TTITLE5=Twotrups - The Cello Track (Namito's Cello Kebab Remix)
TTITLE6=Sole Fusion - Bass Tone (Chocolate Puma Remix)
TTITLE7=Juan Kiss and Mr. Pedros - Bang The Drum (AN21 and Sebjak Remix)
TTITLE8=Boris Rush - Purple Turtles (Original Miami Mix)
TTITLE9=Coyu and Edu Imbernon - El Baile Alemán
TTITLE10=Mark Mendes and Alex Kenji - Take That Sax (Original Mix)
TTITLE11=Antranig - Bitchslap (Original Mix)
TTITLE12=Dosem - Beach Kisses (Joris Voorn Green Mix)
EXTD=
EXTT0=
EXTT1=
EXTT2=
EXTT3=
EXTT4=
EXTT5=
EXTT6=
EXTT7=
EXTT8=
EXTT9=
EXTT10=
EXTT11=
EXTT12=
PLAYORDER=
